<svg id="Capa_1" enable-background="new 0 0 512 512" height="512" viewBox="0 0 512 512" width="512" xmlns="http://www.w3.org/2000/svg"><g><g><path d="m22.744 7.5c-8.284 0-15 6.716-15 15v15 125c8.284 0 25-6.716 25-15v-115h115c8.284 0 15-16.716 15-25h-125z" fill="#80b6fc"/><path d="m147.744 22.5h-117.5c-4.142 0-7.5 3.358-7.5 7.5v117.5c0 8.284-6.716 15-15 15 0 8.284 6.716 15 15 15 8.284 0 15-6.716 15-15v-125h125c8.284 0 15-6.716 15-15 0-8.284-6.716-15-15-15 0 8.284-6.715 15-15 15z" fill="#62a4fb"/><path d="m147.744 499.5c8.284 0 15-16.716 15-25h-125l-15-140c-8.284 0-15 6.716-15 15v125 15z" fill="#80b6fc"/><path d="m162.744 474.5c0 8.284-6.716 15-15 15h-125-15c0 8.284 6.716 15 15 15h140c8.284 0 15-6.716 15-15s-6.715-15-15-15z" fill="#62a4fb"/><path d="m22.744 467c0 4.142 3.358 7.5 7.5 7.5h7.5v-125c0-8.284-6.716-15-15-15z" fill="#62a4fb"/><path d="m484.256 499.5c8.284 0 15-6.716 15-15l-10-150c-8.284 0-15 6.716-15 15v125h-125c-8.284 0-15 6.716-15 15z" fill="#80b6fc"/><path d="m489.256 334.5v147.5c0 4.142-3.358 7.5-7.5 7.5h-147.5c0 8.284 6.716 15 15 15h140c8.284 0 15-6.716 15-15v-140c0-8.284-6.716-15-15-15z" fill="#62a4fb"/><path d="m266.256 311v-45h45c8.284 0 15-16.716 15-25h-55l-15-70c-8.284 0-15 6.716-15 15v55h-55c-8.284 0-15 6.716-15 15l70 15v55c8.284 0 25-6.716 25-15z" fill="#80b6fc"/><g fill="#62a4fb"><path d="m271.256 241v-55c0-8.284-6.716-15-15-15v61.5c0 4.694 3.806 8.5 8.5 8.5z"/><path d="m233.756 256h-62.5c0 8.284 6.716 15 15 15h55v-7.5c0-4.142-3.358-7.5-7.5-7.5z"/><path d="m341.239 256.725c.406-8.614-6.458-15.725-14.983-15.725 0 8.284-6.716 15-15 15h-47.5c-4.142 0-7.5 3.358-7.5 7.5v47.5c0 8.284-6.716 15-15 15 0 8.284 6.716 15 15 15 8.284 0 15-6.716 15-15v-55h54.577c8.076 0 15.026-6.207 15.406-14.275z"/></g><path d="m499.256 157.5-10-150h-15-125c-8.284 0-15 6.716-15 15l140 15v125c8.284 0 25 3.284 25-5z" fill="#80b6fc"/><path d="m489.256 7.5v15 125c0 8.284-6.716 15-15 15 0 8.284 6.716 15 15 15 8.284 0 15-6.716 15-15v-125-15c0-8.284-6.716-15-15-15z" fill="#62a4fb"/><path d="m466.756 22.5h-132.5c0 8.284 6.716 15 15 15h125v-7.5c0-4.142-3.358-7.5-7.5-7.5z" fill="#62a4fb"/></g><g><path d="m489.256 512h-140c-12.406 0-22.5-10.094-22.5-22.5s10.094-22.5 22.5-22.5h117.5v-47.5c0-4.143 3.357-7.5 7.5-7.5s7.5 3.357 7.5 7.5v55c0 4.143-3.357 7.5-7.5 7.5h-125c-4.136 0-7.5 3.364-7.5 7.5s3.364 7.5 7.5 7.5h140c4.136 0 7.5-3.364 7.5-7.5v-140c0-4.136-3.364-7.5-7.5-7.5s-7.5 3.364-7.5 7.5v40c0 4.143-3.357 7.5-7.5 7.5s-7.5-3.357-7.5-7.5v-40c0-12.406 10.094-22.5 22.5-22.5s22.5 10.094 22.5 22.5v140c0 12.406-10.094 22.5-22.5 22.5zm-326.512 0h-140c-12.406 0-22.5-10.094-22.5-22.5v-140c0-12.406 10.094-22.5 22.5-22.5s22.5 10.094 22.5 22.5v117.5h117.5c12.406 0 22.5 10.094 22.5 22.5s-10.094 22.5-22.5 22.5zm-140-170c-4.136 0-7.5 3.364-7.5 7.5v140c0 4.136 3.364 7.5 7.5 7.5h140c4.136 0 7.5-3.364 7.5-7.5s-3.364-7.5-7.5-7.5h-125c-4.143 0-7.5-3.357-7.5-7.5v-125c0-4.136-3.364-7.5-7.5-7.5zm233.512 6.5c-12.406 0-22.5-10.094-22.5-22.5v-15c0-4.143 3.357-7.5 7.5-7.5s7.5 3.357 7.5 7.5v15c0 4.136 3.364 7.5 7.5 7.5s7.5-3.364 7.5-7.5v-55c0-4.143 3.357-7.5 7.5-7.5h55c4.136 0 7.5-3.364 7.5-7.5s-3.364-7.5-7.5-7.5h-55c-4.143 0-7.5-3.357-7.5-7.5v-55c0-4.136-3.364-7.5-7.5-7.5s-7.5 3.364-7.5 7.5v55c0 4.143-3.357 7.5-7.5 7.5h-55c-4.136 0-7.5 3.364-7.5 7.5s3.364 7.5 7.5 7.5h55c4.143 0 7.5 3.357 7.5 7.5v10c0 4.143-3.357 7.5-7.5 7.5s-7.5-3.357-7.5-7.5v-2.5h-47.5c-12.406 0-22.5-10.094-22.5-22.5s10.094-22.5 22.5-22.5h47.5v-47.5c0-12.406 10.094-22.5 22.5-22.5s22.5 10.094 22.5 22.5v47.5h47.5c12.406 0 22.5 10.094 22.5 22.5s-10.094 22.5-22.5 22.5h-47.5v47.5c0 12.406-10.094 22.5-22.5 22.5zm233-163.5c-12.406 0-22.5-10.094-22.5-22.5v-117.5h-117.5c-12.406 0-22.5-10.094-22.5-22.5s10.094-22.5 22.5-22.5h140c12.406 0 22.5 10.094 22.5 22.5v140c0 12.406-10.094 22.5-22.5 22.5zm-140-170c-4.136 0-7.5 3.364-7.5 7.5s3.364 7.5 7.5 7.5h125c4.143 0 7.5 3.357 7.5 7.5v125c0 4.136 3.364 7.5 7.5 7.5s7.5-3.364 7.5-7.5v-140c0-4.136-3.364-7.5-7.5-7.5zm-326.512 170c-12.406 0-22.5-10.094-22.5-22.5v-55c0-4.143 3.357-7.5 7.5-7.5s7.5 3.357 7.5 7.5v55c0 4.136 3.364 7.5 7.5 7.5s7.5-3.364 7.5-7.5v-125c0-4.143 3.357-7.5 7.5-7.5h125c4.136 0 7.5-3.364 7.5-7.5s-3.364-7.5-7.5-7.5h-140c-4.136 0-7.5 3.364-7.5 7.5v55c0 4.143-3.357 7.5-7.5 7.5s-7.5-3.357-7.5-7.5v-55c0-12.406 10.094-22.5 22.5-22.5h140c12.406 0 22.5 10.094 22.5 22.5s-10.094 22.5-22.5 22.5h-117.5v117.5c0 12.406-10.094 22.5-22.5 22.5z"/></g></g></svg>